<?xml version="1.0" encoding="UTF-8"?>
<svg xmlns="http://www.w3.org/2000/svg" xmlns:xlink="http://www.w3.org/1999/xlink" width="24px" height="24px" viewBox="0 0 24 24" version="1.1">
<g id="surface1">
<path style="fill:none;stroke-width:1.5;stroke-linecap:round;stroke-linejoin:round;stroke:rgb(97.647059%,18.823529%,31.764706%);stroke-opacity:1;stroke-miterlimit:4;" d="M 21 16.089844 L 21 11.097656 C 21 6.808594 21 4.664062 19.683594 3.332031 C 18.363281 2 16.242188 2 12 2 C 7.757812 2 5.636719 2 4.316406 3.332031 C 3 4.664062 3 6.808594 3 11.097656 L 3 16.089844 C 3 19.1875 3 20.734375 3.734375 21.414062 C 4.085938 21.734375 4.527344 21.9375 4.996094 21.992188 C 5.984375 22.105469 7.136719 21.085938 9.441406 19.046875 C 10.460938 18.144531 10.972656 17.695312 11.558594 17.574219 C 11.851562 17.515625 12.148438 17.515625 12.441406 17.574219 C 13.027344 17.695312 13.539062 18.144531 14.558594 19.046875 C 16.863281 21.085938 18.015625 22.105469 19.003906 21.992188 C 19.472656 21.9375 19.914062 21.734375 20.265625 21.414062 C 21 20.734375 21 19.1875 21 16.089844 Z M 21 16.089844 "/>
<path style="fill:none;stroke-width:1.5;stroke-linecap:round;stroke-linejoin:round;stroke:rgb(97.647059%,18.823529%,31.764706%);stroke-opacity:1;stroke-miterlimit:4;" d="M 15 6 L 9 6 "/>
<path style="fill:none;stroke-width:0.00024;stroke-linecap:butt;stroke-linejoin:miter;stroke:rgb(97.647059%,18.823529%,31.764706%);stroke-opacity:1;stroke-miterlimit:4;" d="M 21 16.089844 L 21 11.097656 C 21 6.808594 21 4.664062 19.683594 3.332031 C 18.363281 2 16.242188 2 12 2 C 7.757812 2 5.636719 2 4.316406 3.332031 C 3 4.664062 3 6.808594 3 11.097656 L 3 16.089844 C 3 19.1875 3 20.734375 3.734375 21.414062 C 4.085938 21.734375 4.527344 21.9375 4.996094 21.992188 C 5.984375 22.105469 7.136719 21.085938 9.441406 19.046875 C 10.460938 18.144531 10.972656 17.695312 11.558594 17.574219 C 11.851562 17.515625 12.148438 17.515625 12.441406 17.574219 C 13.027344 17.695312 13.539062 18.144531 14.558594 19.046875 C 16.863281 21.085938 18.015625 22.105469 19.003906 21.992188 C 19.472656 21.9375 19.914062 21.734375 20.265625 21.414062 C 21 20.734375 21 19.1875 21 16.089844 Z M 21 16.089844 "/>
<path style="fill:none;stroke-width:0.00024;stroke-linecap:round;stroke-linejoin:miter;stroke:rgb(97.647059%,18.823529%,31.764706%);stroke-opacity:1;stroke-miterlimit:4;" d="M 15 6 L 9 6 "/>
</g>
</svg>
