<?xml version="1.0" encoding="UTF-8"?>
<svg xmlns="http://www.w3.org/2000/svg" xmlns:xlink="http://www.w3.org/1999/xlink" width="24px" height="24px" viewBox="0 0 24 24" version="1.1">
<g id="surface1">
<path style="fill:none;stroke-width:1.5;stroke-linecap:round;stroke-linejoin:round;stroke:rgb(97.647059%,18.823529%,31.764706%);stroke-opacity:1;stroke-miterlimit:4;" d="M 21.28125 6.398438 L 11.738281 15.941406 C 10.789062 16.890625 7.96875 17.328125 7.339844 16.699219 C 6.710938 16.070312 7.140625 13.25 8.089844 12.300781 L 17.640625 2.75 C 17.875 2.492188 18.160156 2.285156 18.476562 2.144531 C 18.796875 2 19.140625 1.921875 19.488281 1.914062 C 19.835938 1.90625 20.183594 1.96875 20.503906 2.101562 C 20.828125 2.230469 21.121094 2.425781 21.367188 2.671875 C 21.613281 2.917969 21.808594 3.210938 21.9375 3.535156 C 22.066406 3.859375 22.128906 4.207031 22.121094 4.554688 C 22.113281 4.902344 22.035156 5.246094 21.890625 5.5625 C 21.746094 5.878906 21.539062 6.164062 21.28125 6.398438 Z M 21.28125 6.398438 "/>
<path style="fill:none;stroke-width:1.5;stroke-linecap:round;stroke-linejoin:round;stroke:rgb(97.647059%,18.823529%,31.764706%);stroke-opacity:1;stroke-miterlimit:4;" d="M 11 4 L 6 4 C 4.9375 4 3.921875 4.421875 3.171875 5.171875 C 2.421875 5.921875 2 6.9375 2 8 L 2 18 C 2 19.0625 2.421875 20.078125 3.171875 20.828125 C 3.921875 21.578125 4.9375 22 6 22 L 17 22 C 19.210938 22 20 20.199219 20 18 L 20 13 "/>
<path style="fill:none;stroke-width:1.5;stroke-linecap:round;stroke-linejoin:round;stroke:rgb(97.647059%,18.823529%,31.764706%);stroke-opacity:1;stroke-miterlimit:4;" d="M 21.28125 6.398438 L 11.738281 15.941406 C 10.789062 16.890625 7.96875 17.328125 7.339844 16.699219 C 6.710938 16.070312 7.140625 13.25 8.089844 12.300781 L 17.640625 2.75 C 17.875 2.492188 18.160156 2.285156 18.476562 2.144531 C 18.796875 2 19.140625 1.921875 19.488281 1.914062 C 19.835938 1.90625 20.183594 1.96875 20.503906 2.101562 C 20.828125 2.230469 21.121094 2.425781 21.367188 2.671875 C 21.613281 2.917969 21.808594 3.210938 21.9375 3.535156 C 22.066406 3.859375 22.128906 4.207031 22.121094 4.554688 C 22.113281 4.902344 22.035156 5.246094 21.890625 5.5625 C 21.746094 5.878906 21.539062 6.164062 21.28125 6.398438 Z M 21.28125 6.398438 "/>
<path style="fill:none;stroke-width:1.5;stroke-linecap:round;stroke-linejoin:round;stroke:rgb(97.647059%,18.823529%,31.764706%);stroke-opacity:1;stroke-miterlimit:4;" d="M 11 4 L 6 4 C 4.9375 4 3.921875 4.421875 3.171875 5.171875 C 2.421875 5.921875 2 6.9375 2 8 L 2 18 C 2 19.0625 2.421875 20.078125 3.171875 20.828125 C 3.921875 21.578125 4.9375 22 6 22 L 17 22 C 19.210938 22 20 20.199219 20 18 L 20 13 "/>
</g>
</svg>
