<?xml version="1.0" encoding="UTF-8"?>
<svg xmlns="http://www.w3.org/2000/svg" xmlns:xlink="http://www.w3.org/1999/xlink" width="24px" height="24px" viewBox="0 0 24 24" version="1.1">
<g id="surface1">
<path style="fill:none;stroke-width:1.5;stroke-linecap:round;stroke-linejoin:round;stroke:rgb(97.647059%,18.823529%,31.764706%);stroke-opacity:1;stroke-miterlimit:4;" d="M 22 12 C 22 16.714844 22 19.070312 20.535156 20.535156 C 19.070312 22 16.714844 22 12 22 C 7.285156 22 4.929688 22 3.464844 20.535156 C 2 19.070312 2 16.714844 2 12 C 2 7.285156 2 4.929688 3.464844 3.464844 C 4.929688 2 7.285156 2 12 2 "/>
<path style="fill:none;stroke-width:1.5;stroke-linecap:round;stroke-linejoin:round;stroke:rgb(97.647059%,18.823529%,31.764706%);stroke-opacity:1;stroke-miterlimit:4;" d="M 2 12.5 L 3.75 10.96875 C 4.664062 10.171875 6.035156 10.214844 6.890625 11.070312 L 11.183594 15.363281 C 11.871094 16.050781 12.953125 16.144531 13.746094 15.582031 L 14.042969 15.375 C 15.1875 14.570312 16.738281 14.664062 17.777344 15.597656 L 21 18.5 "/>
<path style="fill:none;stroke-width:1.5;stroke-linecap:round;stroke-linejoin:round;stroke:rgb(97.647059%,18.823529%,31.764706%);stroke-opacity:1;stroke-miterlimit:4;" d="M 15 5.5 L 18.5 5.5 M 18.5 5.5 L 22 5.5 M 18.5 5.5 L 18.5 9 M 18.5 5.5 L 18.5 2 "/>
<path style="fill:none;stroke-width:1.5;stroke-linecap:round;stroke-linejoin:miter;stroke:rgb(97.647059%,18.823529%,31.764706%);stroke-opacity:1;stroke-miterlimit:4;" d="M 22 12 C 22 16.714844 22 19.070312 20.535156 20.535156 C 19.070312 22 16.714844 22 12 22 C 7.285156 22 4.929688 22 3.464844 20.535156 C 2 19.070312 2 16.714844 2 12 C 2 7.285156 2 4.929688 3.464844 3.464844 C 4.929688 2 7.285156 2 12 2 "/>
<path style="fill:none;stroke-width:1.5;stroke-linecap:round;stroke-linejoin:miter;stroke:rgb(97.647059%,18.823529%,31.764706%);stroke-opacity:1;stroke-miterlimit:4;" d="M 2 12.5 L 3.75 10.96875 C 4.664062 10.171875 6.035156 10.214844 6.890625 11.070312 L 11.183594 15.363281 C 11.871094 16.050781 12.953125 16.144531 13.746094 15.582031 L 14.042969 15.375 C 15.1875 14.570312 16.738281 14.664062 17.777344 15.597656 L 21 18.5 "/>
<path style="fill:none;stroke-width:1.5;stroke-linecap:round;stroke-linejoin:miter;stroke:rgb(97.647059%,18.823529%,31.764706%);stroke-opacity:1;stroke-miterlimit:4;" d="M 15 5.5 L 18.5 5.5 M 18.5 5.5 L 22 5.5 M 18.5 5.5 L 18.5 9 M 18.5 5.5 L 18.5 2 "/>
</g>
</svg>
