<?xml version="1.0" encoding="UTF-8"?>
<svg xmlns="http://www.w3.org/2000/svg" xmlns:xlink="http://www.w3.org/1999/xlink" width="18px" height="18px" viewBox="0 0 18 18" version="1.1">
<g id="surface1">
<path style="fill:none;stroke-width:2;stroke-linecap:round;stroke-linejoin:round;stroke:rgb(97.647059%,18.823529%,31.764706%);stroke-opacity:1;stroke-miterlimit:4;" d="M 12 6 C 10.203125 3.901042 7.192708 3.255208 4.9375 5.177083 C 2.682292 7.09375 2.369792 10.307292 4.135417 12.578125 C 5.609375 14.463542 10.0625 18.447917 11.526042 19.734375 C 11.6875 19.880208 11.770833 19.953125 11.864583 19.979167 C 11.947917 20.005208 12.041667 20.005208 12.125 19.979167 C 12.21875 19.953125 12.296875 19.880208 12.463542 19.734375 C 13.921875 18.447917 18.380208 14.463542 19.848958 12.578125 C 21.619792 10.307292 21.34375 7.072917 19.046875 5.177083 C 16.755208 3.276042 13.796875 3.901042 12 6 Z M 12 6 " transform="matrix(0.75,0,0,0.75,0,0)"/>
</g>
</svg>
