<?xml version="1.0" encoding="UTF-8"?>
<svg xmlns="http://www.w3.org/2000/svg" xmlns:xlink="http://www.w3.org/1999/xlink" width="24px" height="24px" viewBox="0 0 24 24" version="1.1">
<defs>
<filter id="alpha" filterUnits="objectBoundingBox" x="0%" y="0%" width="100%" height="100%">
  <feColorMatrix type="matrix" in="SourceGraphic" values="0 0 0 0 1 0 0 0 0 1 0 0 0 0 1 0 0 0 1 0"/>
</filter>
<mask id="mask0">
  <g filter="url(#alpha)">
<rect x="0" y="0" width="24" height="24" style="fill:rgb(0%,0%,0%);fill-opacity:0.501961;stroke:none;"/>
  </g>
</mask>
<clipPath id="clip1">
  <rect x="0" y="0" width="24" height="24"/>
</clipPath>
<g id="surface5" clip-path="url(#clip1)">
<path style="fill:none;stroke-width:1.5;stroke-linecap:round;stroke-linejoin:round;stroke:rgb(97.647059%,18.823529%,31.764706%);stroke-opacity:1;stroke-miterlimit:4;" d="M 8 19.5 C 5.644531 19.5 4.464844 19.5 3.730469 18.769531 C 3 18.035156 3 16.855469 3 14.5 L 3 9.5 C 3 7.144531 3 5.964844 3.730469 5.230469 C 4.464844 4.5 5.644531 4.5 8 4.5 "/>
</g>
<mask id="mask1">
  <g filter="url(#alpha)">
<rect x="0" y="0" width="24" height="24" style="fill:rgb(0%,0%,0%);fill-opacity:0.501961;stroke:none;"/>
  </g>
</mask>
<clipPath id="clip2">
  <rect x="0" y="0" width="24" height="24"/>
</clipPath>
<g id="surface8" clip-path="url(#clip2)">
<path style="fill:none;stroke-width:1.5;stroke-linecap:butt;stroke-linejoin:miter;stroke:rgb(97.647059%,18.823529%,31.764706%);stroke-opacity:1;stroke-miterlimit:4;" d="M 8 19.5 C 5.644531 19.5 4.464844 19.5 3.730469 18.769531 C 3 18.035156 3 16.855469 3 14.5 L 3 9.5 C 3 7.144531 3 5.964844 3.730469 5.230469 C 4.464844 4.5 5.644531 4.5 8 4.5 "/>
</g>
</defs>
<g id="surface1">
<path style="fill:none;stroke-width:1.5;stroke-linecap:round;stroke-linejoin:round;stroke:rgb(97.647059%,18.823529%,31.764706%);stroke-opacity:1;stroke-miterlimit:4;" d="M 8 7 C 8.015625 4.824219 8.109375 3.648438 8.878906 2.878906 C 9.757812 2 11.171875 2 14 2 L 15 2 C 17.828125 2 19.242188 2 20.121094 2.878906 C 21 3.757812 21 5.171875 21 8 L 21 16 C 21 18.828125 21 20.242188 20.121094 21.121094 C 19.242188 22 17.828125 22 15 22 L 14 22 C 11.171875 22 9.757812 22 8.878906 21.121094 C 8.109375 20.351562 8.015625 19.175781 8 17 "/>
<use xlink:href="#surface5" mask="url(#mask0)"/>
<path style="fill:none;stroke-width:1.5;stroke-linecap:round;stroke-linejoin:round;stroke:rgb(97.647059%,18.823529%,31.764706%);stroke-opacity:1;stroke-miterlimit:4;" d="M 15 12 L 6 12 M 6 12 L 8 14 M 6 12 L 8 10 "/>
<path style="fill:none;stroke-width:1.5;stroke-linecap:round;stroke-linejoin:miter;stroke:rgb(97.647059%,18.823529%,31.764706%);stroke-opacity:1;stroke-miterlimit:4;" d="M 8 7 C 8.015625 4.824219 8.109375 3.648438 8.878906 2.878906 C 9.757812 2 11.171875 2 14 2 L 15 2 C 17.828125 2 19.242188 2 20.121094 2.878906 C 21 3.757812 21 5.171875 21 8 L 21 16 C 21 18.828125 21 20.242188 20.121094 21.121094 C 19.242188 22 17.828125 22 15 22 L 14 22 C 11.171875 22 9.757812 22 8.878906 21.121094 C 8.109375 20.351562 8.015625 19.175781 8 17 "/>
<use xlink:href="#surface8" mask="url(#mask1)"/>
<path style="fill:none;stroke-width:1.5;stroke-linecap:round;stroke-linejoin:round;stroke:rgb(97.647059%,18.823529%,31.764706%);stroke-opacity:1;stroke-miterlimit:4;" d="M 15 12 L 6 12 M 6 12 L 8 14 M 6 12 L 8 10 "/>
</g>
</svg>
