<?xml version="1.0" encoding="UTF-8"?>
<svg xmlns="http://www.w3.org/2000/svg" xmlns:xlink="http://www.w3.org/1999/xlink" width="24px" height="24px" viewBox="0 0 24 24" version="1.1">
<g id="surface1">
<path style="fill:none;stroke-width:32;stroke-linecap:round;stroke-linejoin:round;stroke:rgb(97.647059%,18.823529%,31.764706%);stroke-opacity:1;stroke-miterlimit:4;" d="M 402 168 C 399.083333 208.666667 368.916667 240 336 240 C 303.083333 240 272.916667 208.666667 270 168 C 267 125.666667 296.333333 96 336 96 C 375.666667 96 405 126.5 402 168 Z M 402 168 " transform="matrix(0.046875,0,0,0.046875,0,0)"/>
<path style="fill:none;stroke-width:32;stroke-linecap:round;stroke-linejoin:round;stroke:rgb(97.647059%,18.823529%,31.764706%);stroke-opacity:1;stroke-miterlimit:10;" d="M 336 304 C 270.833333 304 208.166667 336.333333 192.5 399.416667 C 190.416667 407.75 195.583333 416 204.166667 416 L 467.833333 416 C 476.416667 416 481.583333 407.75 479.583333 399.416667 C 463.833333 335.333333 401.166667 304 336 304 Z M 336 304 " transform="matrix(0.046875,0,0,0.046875,0,0)"/>
<path style="fill:none;stroke-width:32;stroke-linecap:round;stroke-linejoin:round;stroke:rgb(97.647059%,18.823529%,31.764706%);stroke-opacity:1;stroke-miterlimit:4;" d="M 200 185.916667 C 197.666667 218.416667 173.25 244 147 244 C 120.75 244 96.333333 218.416667 94 185.916667 C 91.583333 152.166667 115.333333 128 147 128 C 178.666667 128 202.416667 152.75 200 185.916667 Z M 200 185.916667 " transform="matrix(0.046875,0,0,0.046875,0,0)"/>
<path style="fill:none;stroke-width:32;stroke-linecap:round;stroke-linejoin:round;stroke:rgb(97.647059%,18.823529%,31.764706%);stroke-opacity:1;stroke-miterlimit:10;" d="M 206 306 C 187.916667 297.75 168.083333 294.583333 147 294.583333 C 95 294.583333 44.916667 320.416667 32.333333 370.75 C 30.666667 377.416667 34.916667 384 41.75 384 L 154 384 " transform="matrix(0.046875,0,0,0.046875,0,0)"/>
<path style="fill:none;stroke-width:32;stroke-linecap:round;stroke-linejoin:round;stroke:rgb(97.647059%,18.823529%,31.764706%);stroke-opacity:1;stroke-miterlimit:4;" d="M 402 168 C 399.083333 208.666667 368.916667 240 336 240 C 303.083333 240 272.916667 208.666667 270 168 C 267 125.666667 296.333333 96 336 96 C 375.666667 96 405 126.5 402 168 Z M 402 168 " transform="matrix(0.046875,0,0,0.046875,0,0)"/>
<path style="fill:none;stroke-width:32;stroke-linecap:butt;stroke-linejoin:miter;stroke:rgb(97.647059%,18.823529%,31.764706%);stroke-opacity:1;stroke-miterlimit:10;" d="M 336 304 C 270.833333 304 208.166667 336.333333 192.5 399.416667 C 190.416667 407.75 195.583333 416 204.166667 416 L 467.833333 416 C 476.416667 416 481.583333 407.75 479.583333 399.416667 C 463.833333 335.333333 401.166667 304 336 304 Z M 336 304 " transform="matrix(0.046875,0,0,0.046875,0,0)"/>
<path style="fill:none;stroke-width:32;stroke-linecap:round;stroke-linejoin:round;stroke:rgb(97.647059%,18.823529%,31.764706%);stroke-opacity:1;stroke-miterlimit:4;" d="M 200 185.916667 C 197.666667 218.416667 173.25 244 147 244 C 120.75 244 96.333333 218.416667 94 185.916667 C 91.583333 152.166667 115.333333 128 147 128 C 178.666667 128 202.416667 152.75 200 185.916667 Z M 200 185.916667 " transform="matrix(0.046875,0,0,0.046875,0,0)"/>
<path style="fill:none;stroke-width:32;stroke-linecap:round;stroke-linejoin:miter;stroke:rgb(97.647059%,18.823529%,31.764706%);stroke-opacity:1;stroke-miterlimit:10;" d="M 206 306 C 187.916667 297.75 168.083333 294.583333 147 294.583333 C 95 294.583333 44.916667 320.416667 32.333333 370.75 C 30.666667 377.416667 34.916667 384 41.75 384 L 154 384 " transform="matrix(0.046875,0,0,0.046875,0,0)"/>
</g>
</svg>
