<?xml version="1.0" encoding="UTF-8"?>
<svg xmlns="http://www.w3.org/2000/svg" xmlns:xlink="http://www.w3.org/1999/xlink" width="18px" height="18px" viewBox="0 0 18 18" version="1.1">
<defs>
<filter id="alpha" filterUnits="objectBoundingBox" x="0%" y="0%" width="100%" height="100%">
  <feColorMatrix type="matrix" in="SourceGraphic" values="0 0 0 0 1 0 0 0 0 1 0 0 0 0 1 0 0 0 1 0"/>
</filter>
<mask id="mask0">
  <g filter="url(#alpha)">
<rect x="0" y="0" width="18" height="18" style="fill:rgb(0%,0%,0%);fill-opacity:0.501961;stroke:none;"/>
  </g>
</mask>
<clipPath id="clip1">
  <rect x="0" y="0" width="18" height="18"/>
</clipPath>
<g id="surface5" clip-path="url(#clip1)">
<path style="fill:none;stroke-width:1.5;stroke-linecap:round;stroke-linejoin:miter;stroke:rgb(97.647059%,18.823529%,31.764706%);stroke-opacity:1;stroke-miterlimit:4;" d="M 15 6 L 9 6 " transform="matrix(0.75,0,0,0.75,0,0)"/>
</g>
</defs>
<g id="surface1">
<path style="fill:none;stroke-width:1.5;stroke-linecap:butt;stroke-linejoin:miter;stroke:rgb(97.647059%,18.823529%,31.764706%);stroke-opacity:1;stroke-miterlimit:4;" d="M 21 16.088542 L 21 11.098958 C 21 6.807292 21 4.666667 19.682292 3.333333 C 18.364583 2 16.244792 2 12 2 C 7.755208 2 5.635417 2 4.317708 3.333333 C 3 4.666667 3 6.807292 3 11.098958 L 3 16.088542 C 3 19.1875 3 20.734375 3.734375 21.411458 C 4.083333 21.734375 4.526042 21.9375 4.994792 21.989583 C 5.984375 22.104167 7.135417 21.083333 9.442708 19.046875 C 10.463542 18.145833 10.96875 17.692708 11.5625 17.572917 C 11.848958 17.515625 12.151042 17.515625 12.4375 17.572917 C 13.03125 17.692708 13.536458 18.145833 14.557292 19.046875 C 16.864583 21.083333 18.015625 22.104167 19.005208 21.989583 C 19.473958 21.9375 19.916667 21.734375 20.265625 21.411458 C 21 20.734375 21 19.1875 21 16.088542 Z M 21 16.088542 " transform="matrix(0.75,0,0,0.75,0,0)"/>
<use xlink:href="#surface5" mask="url(#mask0)"/>
</g>
</svg>
