<?xml version="1.0" encoding="UTF-8"?>
<svg xmlns="http://www.w3.org/2000/svg" xmlns:xlink="http://www.w3.org/1999/xlink" width="18px" height="18px" viewBox="0 0 18 18" version="1.1">
<g id="surface1">
<path style="fill-rule:evenodd;fill:rgb(97.647059%,18.823529%,31.764706%);fill-opacity:1;stroke-width:1;stroke-linecap:butt;stroke-linejoin:miter;stroke:rgb(97.647059%,18.823529%,31.764706%);stroke-opacity:1;stroke-miterlimit:4;" d="M 21 11.098958 L 21 16.088542 C 21 19.1875 21 20.734375 20.265625 21.411458 C 19.916667 21.734375 19.473958 21.9375 19.005208 21.989583 C 18.015625 22.104167 16.864583 21.083333 14.557292 19.046875 C 13.536458 18.145833 13.03125 17.692708 12.4375 17.572917 C 12.151042 17.515625 11.848958 17.515625 11.5625 17.572917 C 10.96875 17.692708 10.463542 18.145833 9.442708 19.046875 C 7.135417 21.083333 5.984375 22.104167 4.994792 21.989583 C 4.526042 21.9375 4.083333 21.734375 3.734375 21.411458 C 3 20.734375 3 19.1875 3 16.088542 L 3 11.098958 C 3 6.807292 3 4.666667 4.317708 3.333333 C 5.635417 2 7.755208 2 12 2 C 16.244792 2 18.364583 2 19.682292 3.333333 C 21 4.666667 21 6.807292 21 11.098958 Z M 8.25 6 C 8.25 5.583333 8.583333 5.25 9 5.25 L 15 5.25 C 15.416667 5.25 15.75 5.583333 15.75 6 C 15.75 6.416667 15.416667 6.75 15 6.75 L 9 6.75 C 8.583333 6.75 8.25 6.416667 8.25 6 Z M 8.25 6 " transform="matrix(0.75,0,0,0.75,0,0)"/>
</g>
</svg>
