<?xml version="1.0" encoding="UTF-8"?>
<svg xmlns="http://www.w3.org/2000/svg" xmlns:xlink="http://www.w3.org/1999/xlink" width="24px" height="24px" viewBox="0 0 24 24" version="1.1">
<g id="surface1">
<path style="fill:none;stroke-width:1.5;stroke-linecap:round;stroke-linejoin:round;stroke:rgb(97.647059%,18.823529%,31.764706%);stroke-opacity:1;stroke-miterlimit:4;" d="M 5 8 C 5 5.171875 5 3.757812 5.878906 2.878906 C 6.757812 2 8.171875 2 11 2 L 13 2 C 15.828125 2 17.242188 2 18.121094 2.878906 C 19 3.757812 19 5.171875 19 8 L 19 16 C 19 18.828125 19 20.242188 18.121094 21.121094 C 17.242188 22 15.828125 22 13 22 L 11 22 C 8.171875 22 6.757812 22 5.878906 21.121094 C 5 20.242188 5 18.828125 5 16 Z M 5 8 "/>
<path style="fill:none;stroke-width:1.5;stroke-linecap:round;stroke-linejoin:round;stroke:rgb(97.647059%,18.823529%,31.764706%);stroke-opacity:1;stroke-miterlimit:4;" d="M 19 19.5 C 19.464844 19.5 19.695312 19.5 19.890625 19.46875 C 20.960938 19.300781 21.800781 18.460938 21.96875 17.390625 C 22 17.195312 22 16.964844 22 16.5 L 22 7.5 C 22 7.035156 22 6.804688 21.96875 6.609375 C 21.800781 5.539062 20.960938 4.699219 19.890625 4.53125 C 19.695312 4.5 19.464844 4.5 19 4.5 "/>
<path style="fill:none;stroke-width:1.5;stroke-linecap:round;stroke-linejoin:round;stroke:rgb(97.647059%,18.823529%,31.764706%);stroke-opacity:1;stroke-miterlimit:4;" d="M 5 19.5 C 4.535156 19.5 4.304688 19.5 4.109375 19.46875 C 3.039062 19.300781 2.199219 18.460938 2.03125 17.390625 C 2 17.195312 2 16.964844 2 16.5 L 2 7.5 C 2 7.035156 2 6.804688 2.03125 6.609375 C 2.199219 5.539062 3.039062 4.699219 4.109375 4.53125 C 4.304688 4.5 4.535156 4.5 5 4.5 "/>
<path style="fill:none;stroke-width:1.5;stroke-linecap:round;stroke-linejoin:round;stroke:rgb(97.647059%,18.823529%,31.764706%);stroke-opacity:1;stroke-miterlimit:4;" d="M 16 6.5 C 16 7.328125 15.328125 8 14.5 8 C 13.671875 8 13 7.328125 13 6.5 C 13 5.671875 13.671875 5 14.5 5 C 15.328125 5 16 5.671875 16 6.5 Z M 16 6.5 "/>
<path style="fill:none;stroke-width:1.5;stroke-linecap:round;stroke-linejoin:round;stroke:rgb(97.647059%,18.823529%,31.764706%);stroke-opacity:1;stroke-miterlimit:4;" d="M 5 14.816406 L 6.289062 13.492188 C 6.960938 12.804688 7.972656 12.84375 8.605469 13.582031 L 11.765625 17.289062 C 12.273438 17.882812 13.070312 17.964844 13.65625 17.480469 L 13.875 17.300781 C 14.71875 16.605469 15.859375 16.683594 16.625 17.492188 L 18.527344 19.5 "/>
<path style="fill:none;stroke-width:1.5;stroke-linecap:butt;stroke-linejoin:miter;stroke:rgb(97.647059%,18.823529%,31.764706%);stroke-opacity:1;stroke-miterlimit:4;" d="M 5 8 C 5 5.171875 5 3.757812 5.878906 2.878906 C 6.757812 2 8.171875 2 11 2 L 13 2 C 15.828125 2 17.242188 2 18.121094 2.878906 C 19 3.757812 19 5.171875 19 8 L 19 16 C 19 18.828125 19 20.242188 18.121094 21.121094 C 17.242188 22 15.828125 22 13 22 L 11 22 C 8.171875 22 6.757812 22 5.878906 21.121094 C 5 20.242188 5 18.828125 5 16 Z M 5 8 "/>
<path style="fill:none;stroke-width:1.5;stroke-linecap:butt;stroke-linejoin:miter;stroke:rgb(97.647059%,18.823529%,31.764706%);stroke-opacity:1;stroke-miterlimit:4;" d="M 19 19.5 C 19.464844 19.5 19.695312 19.5 19.890625 19.46875 C 20.960938 19.300781 21.800781 18.460938 21.96875 17.390625 C 22 17.195312 22 16.964844 22 16.5 L 22 7.5 C 22 7.035156 22 6.804688 21.96875 6.609375 C 21.800781 5.539062 20.960938 4.699219 19.890625 4.53125 C 19.695312 4.5 19.464844 4.5 19 4.5 "/>
<path style="fill:none;stroke-width:1.5;stroke-linecap:butt;stroke-linejoin:miter;stroke:rgb(97.647059%,18.823529%,31.764706%);stroke-opacity:1;stroke-miterlimit:4;" d="M 5 19.5 C 4.535156 19.5 4.304688 19.5 4.109375 19.46875 C 3.039062 19.300781 2.199219 18.460938 2.03125 17.390625 C 2 17.195312 2 16.964844 2 16.5 L 2 7.5 C 2 7.035156 2 6.804688 2.03125 6.609375 C 2.199219 5.539062 3.039062 4.699219 4.109375 4.53125 C 4.304688 4.5 4.535156 4.5 5 4.5 "/>
<path style="fill:none;stroke-width:1.5;stroke-linecap:butt;stroke-linejoin:miter;stroke:rgb(97.647059%,18.823529%,31.764706%);stroke-opacity:1;stroke-miterlimit:4;" d="M 16 6.5 C 16 7.328125 15.328125 8 14.5 8 C 13.671875 8 13 7.328125 13 6.5 C 13 5.671875 13.671875 5 14.5 5 C 15.328125 5 16 5.671875 16 6.5 Z M 16 6.5 "/>
<path style="fill:none;stroke-width:1.5;stroke-linecap:round;stroke-linejoin:miter;stroke:rgb(97.647059%,18.823529%,31.764706%);stroke-opacity:1;stroke-miterlimit:4;" d="M 5 14.816406 L 6.289062 13.492188 C 6.960938 12.804688 7.972656 12.84375 8.605469 13.582031 L 11.765625 17.289062 C 12.273438 17.882812 13.070312 17.964844 13.65625 17.480469 L 13.875 17.300781 C 14.71875 16.605469 15.859375 16.683594 16.625 17.492188 L 18.527344 19.5 "/>
</g>
</svg>
